/* XPM */
static char *player__1_1739716967[] = {
/* columns rows colors chars-per-pixel */
"32 32 62 1 ",
"  c #292928",
". c #2B2A29",
"X c #37312D",
"o c #333231",
"O c #3B3A39",
"+ c #3C3B3B",
"@ c #5E493A",
"# c #6A503E",
"$ c #51504F",
"% c #605F5E",
"& c #AB211E",
"* c #A82320",
"= c #AB2320",
"- c #AB2421",
"; c #AC2522",
": c #AC2623",
"> c #AD2723",
", c #AE2D29",
"< c #B13835",
"1 c #B23835",
"2 c #B54340",
"3 c #B9504E",
"4 c #BB5553",
"5 c #896248",
"6 c #B2764F",
"7 c #A17151",
"8 c #C2855C",
"9 c #CE895C",
"0 c #E3855C",
"q c #E6895D",
"w c #D88F60",
"e c #DB9263",
"r c #E08560",
"t c #E98F61",
"y c #E09564",
"u c #EC9D67",
"i c #EC9D69",
"p c #F49F6A",
"a c #F5A26C",
"s c #F7A56E",
"d c #A1A2A1",
"f c gray67",
"g c #EFAD84",
"h c #E7AD90",
"j c #D6AEAD",
"k c #DBBEBD",
"l c #EECCB6",
"z c #D9DADA",
"x c #DADBDB",
"c c #E0C8C4",
"v c #E3D5D5",
"b c #E3DADA",
"n c #E6E1E1",
"m c #E7E2E2",
"M c #E4E5E5",
"N c #E9E9E9",
"B c #E9EAE9",
"V c #E9EBEB",
"C c #EAEAEA",
"Z c #E9EAEC",
"A c #EBECEC",
"S c None",
/* pixels */
"SSSSSSSSSSSSSSSSSSSSSSSSSSSSSSSS",
"SSSSSSSSSSSSSSo. SSSSSSSSSSSSSSS",
"SSSSSSSSSSSSS      SSSSSSSSSSSSS",
"SSSSSSSSSSSSS    X#SSSSSSSSSSSSS",
"SSSSSSSSSSSS@###58y@SSSSSSSSSSSS",
"SSSSSSSSSSSSew9aaey7SSSSSSSSSSSS",
"SSSSSSSSSSSSpy6aa6weSSSSSSSSSSSS",
"SSSSSSSSSSSSSiyaaeiSSSSSSSSSSSSS",
"SSSSSSSSSSSSSSsuusSSSSSSSSSSSSSS",
"SSSSSSSSSSSSSSSqqSSSSSSSSSSSSSSS",
"SSSSSSSSSSSSS::,,::SSSSSSSSSSSSS",
"SSSSSSSSSSSSj,=*:&,jSSSSSSSSSSSS",
"SSSSSSSSSSSSv2&*&&2vSSSSSSSSSSSS",
"SSSSSSSSSSSSm4&**&4mSSSSSSSSSSSS",
"SSSSSSSSSSSVm3&**&3nVSSSSSSSSSSS",
"SSSSSSSSSSSVb<&**=<bASSSSSSSSSSS",
"SSSSSSSSSSSSh::**=:hSSSSSSSSSSSS",
"SSSSSSSSSSSSt>&**=:tSSSSSSSSSSSS",
"SSSSSSSSSSSS0:&&&&:0SSSSSSSSSSSS",
"SSSSSSSSSSSSr<,,,,<rSSSSSSSSSSSS",
"SSSSSSSSSSSSgckkkkcgSSSSSSSSSSSS",
"SSSSSSSSSSSSlNAAAVBlSSSSSSSSSSSS",
"SSSSSSSSSSSSVNNVVBBZSSSSSSSSSSSS",
"SSSSSSSSSSSSVNNVBBBBSSSSSSSSSSSS",
"SSSSSSSSSSSSSMASSxMSSSSSSSSSSSSS",
"SSSSSSSSSSSSSVASSxzSSSSSSSSSSSSS",
"SSSSSSSSSSSSSAASSxzSSSSSSSSSSSSS",
"SSSSSSSSSSSSSSVSSzSSSSSSSSSSSSSS",
"SSSSSSSSSSSSSSfSSdSSSSSSSSSSSSSS",
"SSSSSSSSSSSSS$%SS%$SSSSSSSSSSSSS",
"SSSSSSSSSSSSS+OSSOoSSSSSSSSSSSSS",
"SSSSSSSSSSSSSSSSSSSSSSSSSSSSSSSS"
};
